ffmpeg started on 2026-01-20 at 13:30:55
Report written to "D:\Convert\FFMetrics\reports\ssim_report-6.txt"
Log level: 32
Command line:
ffmpeg -hide_banner -nostdin -r 24000/1001 -i "F:\\Convert\\files\\[DC] Make Heroine ga Oosugiru - 07_Telegram_HEVC(194).mkv" -r 24000/1001 -i "F:\\Convert\\files\\[DC] Make Heroine ga Oosugiru - 07_Telegram.mp4" -lavfi "[0:v]settb=AVTB,setpts=PTS-STARTPTS,format=pix_fmts=yuv420p10le,fps=24000/1001,scale=1920:1080:flags=lanczos:param0=3:out_range=limited:out_color_matrix=bt709:out_chroma_loc=left,setsar=1/1,setdar=(1920/1080)*(1/1),colorspace=format=yuv420p10:range=tv:primaries=bt709:trc=bt709:space=bt709:fast=0[main];[1:v]settb=AVTB,setpts=PTS-STARTPTS,format=pix_fmts=yuv420p,fps=24000/1001,scale=1920:1080:flags=lanczos:param0=3:out_range=limited:out_color_matrix=bt709:out_chroma_loc=left,setsar=1.000,setdar=1.778,colorspace=format=yuv420p:range=tv:primaries=bt709:trc=bt709:space=bt709:fast=0[ref];[main][ref]ssim=eof_action=endall:stats_file='D\\:/Convert/FFMetrics/logs/ssim_logfile-6.txt'" -f null -
Input #0, matroska,webm, from 'F:\Convert\files\[DC] Make Heroine ga Oosugiru - 07_Telegram_HEVC(194).mkv':
  Metadata:
    COMPATIBLE_BRANDS: isomiso2avc1mp41
    MAJOR_BRAND     : isom
    MINOR_VERSION   : 512
    ENCODER         : Lavf61.7.100
  Duration: 00:24:06.79, start: -0.021000, bitrate: 972 kb/s
  Stream #0:0: Video: hevc (Main 10), yuv420p10le(tv, bt709, progressive), 1920x1080 [SAR 1:1 DAR 16:9], 23.98 fps, 23.98 tbr, 1k tbn (default)
      Metadata:
        HANDLER_NAME    : VideoHandler
        VENDOR_ID       : [0][0][0][0]
        ENCODER         : Lavc61.19.100 libx265
        BPS             : 775161
        DURATION        : 00:24:06.569708333
        NUMBER_OF_FRAMES: 34683
        NUMBER_OF_BYTES : 140165555
        _STATISTICS_WRITING_APP: mkvpropedit v94.0 ('Initiate') 64-bit
        _STATISTICS_WRITING_DATE_UTC: 2026-01-19 15:45:13
        _STATISTICS_TAGS: BPS DURATION NUMBER_OF_FRAMES NUMBER_OF_BYTES
  Stream #0:1: Audio: aac (LC), 48000 Hz, stereo, fltp (default)
      Metadata:
        HANDLER_NAME    : SoundHandler
        VENDOR_ID       : [0][0][0][0]
        ENCODER         : Lavc61.19.100 aac
        BPS             : 193194
        DURATION        : 00:24:06.784000000
        NUMBER_OF_FRAMES: 67819
        NUMBER_OF_BYTES : 34938755
        _STATISTICS_WRITING_APP: mkvpropedit v94.0 ('Initiate') 64-bit
        _STATISTICS_WRITING_DATE_UTC: 2026-01-19 15:45:13
        _STATISTICS_TAGS: BPS DURATION NUMBER_OF_FRAMES NUMBER_OF_BYTES
Input #1, mov,mp4,m4a,3gp,3g2,mj2, from 'F:\Convert\files\[DC] Make Heroine ga Oosugiru - 07_Telegram.mp4':
  Metadata:
    major_brand     : isom
    minor_version   : 512
    compatible_brands: isomiso2avc1mp41
    encoder         : Lavf60.16.100
  Duration: 00:24:06.74, start: 0.000000, bitrate: 3764 kb/s
  Stream #1:0[0x1](und): Video: h264 (High) (avc1 / 0x31637661), yuv420p(tv, bt709, progressive), 1920x1080 [SAR 1:1 DAR 16:9], 3616 kb/s, 23.98 fps, 23.98 tbr, 24k tbn (default)
      Metadata:
        handler_name    : VideoHandler
        vendor_id       : [0][0][0][0]
        encoder         : Lavc60.31.102 h264_qsv
  Stream #1:1[0x2](und): Audio: aac (HE-AACv2) (mp4a / 0x6134706D), 48000 Hz, stereo, fltp, 144 kb/s (default)
      Metadata:
        handler_name    : SoundHandler
        vendor_id       : [0][0][0][0]
Stream mapping:
  Stream #0:0 (hevc) -> settb:default
  Stream #1:0 (h264) -> settb:default
  ssim:default -> Stream #0:0 (wrapped_avframe)
  Stream #0:1 -> #0:1 (aac (native) -> pcm_s16le (native))
Output #0, null, to 'pipe:':
  Metadata:
    COMPATIBLE_BRANDS: isomiso2avc1mp41
    MAJOR_BRAND     : isom
    MINOR_VERSION   : 512
    encoder         : Lavf61.7.100
  Stream #0:0: Video: wrapped_avframe, yuv420p10le(tv, bt709, progressive), 1920x1080 [SAR 1:1 DAR 16:9], q=2-31, 200 kb/s, 23.98 fps, 23.98 tbn
      Metadata:
        encoder         : Lavc61.19.100 wrapped_avframe
  Stream #0:1: Audio: pcm_s16le, 48000 Hz, stereo, s16, 1536 kb/s (default)
      Metadata:
        HANDLER_NAME    : SoundHandler
        VENDOR_ID       : [0][0][0][0]
        _STATISTICS_TAGS: BPS DURATION NUMBER_OF_FRAMES NUMBER_OF_BYTES
        BPS             : 193194
        DURATION        : 00:24:06.784000000
        NUMBER_OF_FRAMES: 67819
        NUMBER_OF_BYTES : 34938755
        _STATISTICS_WRITING_APP: mkvpropedit v94.0 ('Initiate') 64-bit
        _STATISTICS_WRITING_DATE_UTC: 2026-01-19 15:45:13
        encoder         : Lavc61.19.100 pcm_s16le
frame=  131 fps=0.0 q=-0.0 size=N/A time=00:00:05.46 bitrate=N/A speed=10.6x    frame=  316 fps=307 q=-0.0 size=N/A time=00:00:13.17 bitrate=N/A speed=12.8x    frame=  499 fps=324 q=-0.0 size=N/A time=00:00:20.81 bitrate=N/A speed=13.5x    frame=  694 fps=335 q=-0.0 size=N/A time=00:00:28.94 bitrate=N/A speed=  14x    frame=  874 fps=339 q=-0.0 size=N/A time=00:00:36.45 bitrate=N/A speed=14.1x    frame= 1001 fps=324 q=-0.0 size=N/A time=00:00:41.75 bitrate=N/A speed=13.5x    frame= 1165 fps=322 q=-0.0 size=N/A time=00:00:48.59 bitrate=N/A speed=13.4x    frame= 1328 fps=322 q=-0.0 size=N/A time=00:00:55.38 bitrate=N/A speed=13.4x    frame= 1489 fps=321 q=-0.0 size=N/A time=00:01:02.10 bitrate=N/A speed=13.4x    frame= 1626 fps=316 q=-0.0 size=N/A time=00:01:07.81 bitrate=N/A speed=13.2x    frame= 1786 fps=315 q=-0.0 size=N/A time=00:01:14.49 bitrate=N/A speed=13.1x    frame= 1948 fps=315 q=-0.0 size=N/A time=00:01:21.24 bitrate=N/A speed=13.1x    frame= 2079 fps=310 q=-0.0 size=N/A time=00:01:26.71 bitrate=N/A speed=12.9x    frame= 2218 fps=307 q=-0.0 size=N/A time=00:01:32.50 bitrate=N/A speed=12.8x    frame= 2370 fps=306 q=-0.0 size=N/A time=00:01:38.84 bitrate=N/A speed=12.8x    frame= 2506 fps=304 q=-0.0 size=N/A time=00:01:44.52 bitrate=N/A speed=12.7x    frame= 2656 fps=303 q=-0.0 size=N/A time=00:01:50.77 bitrate=N/A speed=12.6x    frame= 2842 fps=306 q=-0.0 size=N/A time=00:01:58.53 bitrate=N/A speed=12.8x    frame= 3016 fps=308 q=-0.0 size=N/A time=00:02:05.79 bitrate=N/A speed=12.8x    frame= 3203 fps=311 q=-0.0 size=N/A time=00:02:13.59 bitrate=N/A speed=  13x    frame= 3384 fps=313 q=-0.0 size=N/A time=00:02:21.14 bitrate=N/A speed=  13x    frame= 3577 fps=315 q=-0.0 size=N/A time=00:02:29.19 bitrate=N/A speed=13.1x    frame= 3765 fps=317 q=-0.0 size=N/A time=00:02:37.03 bitrate=N/A speed=13.2x    frame= 3948 fps=319 q=-0.0 size=N/A time=00:02:44.66 bitrate=N/A speed=13.3x    frame= 4133 fps=321 q=-0.0 size=N/A time=00:02:52.38 bitrate=N/A speed=13.4x    frame= 4313 fps=322 q=-0.0 size=N/A time=00:02:59.88 bitrate=N/A speed=13.4x    frame= 4494 fps=323 q=-0.0 size=N/A time=00:03:07.43 bitrate=N/A speed=13.5x    frame= 4684 fps=324 q=-0.0 size=N/A time=00:03:15.36 bitrate=N/A speed=13.5x    frame= 4868 fps=325 q=-0.0 size=N/A time=00:03:23.03 bitrate=N/A speed=13.6x    frame= 5051 fps=326 q=-0.0 size=N/A time=00:03:30.66 bitrate=N/A speed=13.6x    frame= 5238 fps=328 q=-0.0 size=N/A time=00:03:38.46 bitrate=N/A speed=13.7x    frame= 5427 fps=329 q=-0.0 size=N/A time=00:03:46.35 bitrate=N/A speed=13.7x    frame= 5609 fps=329 q=-0.0 size=N/A time=00:03:53.94 bitrate=N/A speed=13.7x    frame= 5785 fps=330 q=-0.0 size=N/A time=00:04:01.28 bitrate=N/A speed=13.8x    frame= 5963 fps=330 q=-0.0 size=N/A time=00:04:08.70 bitrate=N/A speed=13.8x    frame= 6155 fps=331 q=-0.0 size=N/A time=00:04:16.71 bitrate=N/A speed=13.8x    frame= 6343 fps=332 q=-0.0 size=N/A time=00:04:24.55 bitrate=N/A speed=13.8x    frame= 6532 fps=333 q=-0.0 size=N/A time=00:04:32.43 bitrate=N/A speed=13.9x    frame= 6715 fps=333 q=-0.0 size=N/A time=00:04:40.07 bitrate=N/A speed=13.9x    frame= 6903 fps=334 q=-0.0 size=N/A time=00:04:47.91 bitrate=N/A speed=13.9x    frame= 7080 fps=334 q=-0.0 size=N/A time=00:04:55.29 bitrate=N/A speed=13.9x    frame= 7258 fps=335 q=-0.0 size=N/A time=00:05:02.71 bitrate=N/A speed=  14x    frame= 7429 fps=334 q=-0.0 size=N/A time=00:05:09.85 bitrate=N/A speed=13.9x    frame= 7617 fps=335 q=-0.0 size=N/A time=00:05:17.69 bitrate=N/A speed=  14x    frame= 7793 fps=335 q=-0.0 size=N/A time=00:05:25.03 bitrate=N/A speed=  14x    frame= 7967 fps=335 q=-0.0 size=N/A time=00:05:32.29 bitrate=N/A speed=  14x    frame= 8152 fps=336 q=-0.0 size=N/A time=00:05:40.00 bitrate=N/A speed=  14x    frame= 8333 fps=336 q=-0.0 size=N/A time=00:05:47.55 bitrate=N/A speed=  14x    frame= 8515 fps=336 q=-0.0 size=N/A time=00:05:55.14 bitrate=N/A speed=  14x    frame= 8706 fps=337 q=-0.0 size=N/A time=00:06:03.11 bitrate=N/A speed=14.1x    frame= 8884 fps=337 q=-0.0 size=N/A time=00:06:10.53 bitrate=N/A speed=14.1x    frame= 9071 fps=338 q=-0.0 size=N/A time=00:06:18.33 bitrate=N/A speed=14.1x    frame= 9254 fps=338 q=-0.0 size=N/A time=00:06:25.96 bitrate=N/A speed=14.1x    frame= 9442 fps=338 q=-0.0 size=N/A time=00:06:33.81 bitrate=N/A speed=14.1x    frame= 9622 fps=339 q=-0.0 size=N/A time=00:06:41.31 bitrate=N/A speed=14.1x    frame= 9804 fps=339 q=-0.0 size=N/A time=00:06:48.90 bitrate=N/A speed=14.1x    frame= 9983 fps=339 q=-0.0 size=N/A time=00:06:56.37 bitrate=N/A speed=14.1x    frame=10169 fps=339 q=-0.0 size=N/A time=00:07:04.13 bitrate=N/A speed=14.2x    frame=10335 fps=339 q=-0.0 size=N/A time=00:07:11.05 bitrate=N/A speed=14.1x    frame=10513 fps=339 q=-0.0 size=N/A time=00:07:18.47 bitrate=N/A speed=14.2x    frame=10680 fps=339 q=-0.0 size=N/A time=00:07:25.44 bitrate=N/A speed=14.1x    frame=10868 fps=339 q=-0.0 size=N/A time=00:07:33.28 bitrate=N/A speed=14.2x    frame=11041 fps=339 q=-0.0 size=N/A time=00:07:40.50 bitrate=N/A speed=14.2x    frame=11212 fps=339 q=-0.0 size=N/A time=00:07:47.63 bitrate=N/A speed=14.2x    frame=11380 fps=339 q=-0.0 size=N/A time=00:07:54.64 bitrate=N/A speed=14.1x    frame=11565 fps=339 q=-0.0 size=N/A time=00:08:02.35 bitrate=N/A speed=14.2x    frame=11754 fps=340 q=-0.0 size=N/A time=00:08:10.23 bitrate=N/A speed=14.2x    frame=11934 fps=340 q=-0.0 size=N/A time=00:08:17.74 bitrate=N/A speed=14.2x    frame=12130 fps=340 q=-0.0 size=N/A time=00:08:25.92 bitrate=N/A speed=14.2x    frame=12311 fps=341 q=-0.0 size=N/A time=00:08:33.47 bitrate=N/A speed=14.2x    frame=12500 fps=341 q=-0.0 size=N/A time=00:08:41.35 bitrate=N/A speed=14.2x    frame=12684 fps=341 q=-0.0 size=N/A time=00:08:49.02 bitrate=N/A speed=14.2x    frame=12877 fps=341 q=-0.0 size=N/A time=00:08:57.07 bitrate=N/A speed=14.2x    frame=13062 fps=342 q=-0.0 size=N/A time=00:09:04.79 bitrate=N/A speed=14.3x    frame=13243 fps=342 q=-0.0 size=N/A time=00:09:12.34 bitrate=N/A speed=14.3x    frame=13432 fps=342 q=-0.0 size=N/A time=00:09:20.22 bitrate=N/A speed=14.3x    frame=13606 fps=342 q=-0.0 size=N/A time=00:09:27.48 bitrate=N/A speed=14.3x    frame=13785 fps=342 q=-0.0 size=N/A time=00:09:34.94 bitrate=N/A speed=14.3x    frame=13982 fps=343 q=-0.0 size=N/A time=00:09:43.16 bitrate=N/A speed=14.3x    frame=14151 fps=343 q=-0.0 size=N/A time=00:09:50.21 bitrate=N/A speed=14.3x    frame=14324 fps=342 q=-0.0 size=N/A time=00:09:57.43 bitrate=N/A speed=14.3x    frame=14507 fps=343 q=-0.0 size=N/A time=00:10:05.06 bitrate=N/A speed=14.3x    frame=14686 fps=343 q=-0.0 size=N/A time=00:10:12.52 bitrate=N/A speed=14.3x    frame=14870 fps=343 q=-0.0 size=N/A time=00:10:20.20 bitrate=N/A speed=14.3x    frame=15054 fps=343 q=-0.0 size=N/A time=00:10:27.87 bitrate=N/A speed=14.3x    frame=15211 fps=342 q=-0.0 size=N/A time=00:10:34.42 bitrate=N/A speed=14.3x    frame=15389 fps=343 q=-0.0 size=N/A time=00:10:41.84 bitrate=N/A speed=14.3x    frame=15576 fps=343 q=-0.0 size=N/A time=00:10:49.64 bitrate=N/A speed=14.3x    frame=15763 fps=343 q=-0.0 size=N/A time=00:10:57.44 bitrate=N/A speed=14.3x    frame=15949 fps=343 q=-0.0 size=N/A time=00:11:05.20 bitrate=N/A speed=14.3x    frame=16125 fps=343 q=-0.0 size=N/A time=00:11:12.54 bitrate=N/A speed=14.3x    frame=16317 fps=343 q=-0.0 size=N/A time=00:11:20.55 bitrate=N/A speed=14.3x    frame=16495 fps=344 q=-0.0 size=N/A time=00:11:27.97 bitrate=N/A speed=14.3x    frame=16682 fps=344 q=-0.0 size=N/A time=00:11:35.77 bitrate=N/A speed=14.3x    frame=16869 fps=344 q=-0.0 size=N/A time=00:11:43.57 bitrate=N/A speed=14.3x    frame=17048 fps=344 q=-0.0 size=N/A time=00:11:51.04 bitrate=N/A speed=14.3x    frame=17209 fps=344 q=-0.0 size=N/A time=00:11:57.75 bitrate=N/A speed=14.3x    frame=17369 fps=343 q=-0.0 size=N/A time=00:12:04.43 bitrate=N/A speed=14.3x    frame=17516 fps=343 q=-0.0 size=N/A time=00:12:10.56 bitrate=N/A speed=14.3x    frame=17654 fps=342 q=-0.0 size=N/A time=00:12:16.31 bitrate=N/A speed=14.3x    frame=17800 fps=341 q=-0.0 size=N/A time=00:12:22.40 bitrate=N/A speed=14.2x    frame=17952 fps=341 q=-0.0 size=N/A time=00:12:28.74 bitrate=N/A speed=14.2x    frame=18102 fps=340 q=-0.0 size=N/A time=00:12:35.00 bitrate=N/A speed=14.2x    frame=18239 fps=340 q=-0.0 size=N/A time=00:12:40.71 bitrate=N/A speed=14.2x    frame=18394 fps=339 q=-0.0 size=N/A time=00:12:47.18 bitrate=N/A speed=14.2x    frame=18506 fps=338 q=-0.0 size=N/A time=00:12:51.85 bitrate=N/A speed=14.1x    frame=18627 fps=337 q=-0.0 size=N/A time=00:12:56.90 bitrate=N/A speed=14.1x    frame=18780 fps=337 q=-0.0 size=N/A time=00:13:03.28 bitrate=N/A speed=  14x    frame=18938 fps=337 q=-0.0 size=N/A time=00:13:09.87 bitrate=N/A speed=  14x    frame=19097 fps=336 q=-0.0 size=N/A time=00:13:16.50 bitrate=N/A speed=  14x    frame=19246 fps=336 q=-0.0 size=N/A time=00:13:22.71 bitrate=N/A speed=  14x    frame=19396 fps=335 q=-0.0 size=N/A time=00:13:28.97 bitrate=N/A speed=  14x    frame=19534 fps=335 q=-0.0 size=N/A time=00:13:34.73 bitrate=N/A speed=  14x    frame=19699 fps=335 q=-0.0 size=N/A time=00:13:41.61 bitrate=N/A speed=  14x    frame=19850 fps=334 q=-0.0 size=N/A time=00:13:47.91 bitrate=N/A speed=13.9x    frame=19947 fps=333 q=-0.0 size=N/A time=00:13:51.95 bitrate=N/A speed=13.9x    frame=20042 fps=332 q=-0.0 size=N/A time=00:13:55.91 bitrate=N/A speed=13.8x    frame=20164 fps=331 q=-0.0 size=N/A time=00:14:01.00 bitrate=N/A speed=13.8x    frame=20287 fps=330 q=-0.0 size=N/A time=00:14:06.13 bitrate=N/A speed=13.8x    frame=20418 fps=330 q=-0.0 size=N/A time=00:14:11.60 bitrate=N/A speed=13.7x    frame=20546 fps=329 q=-0.0 size=N/A time=00:14:16.93 bitrate=N/A speed=13.7x    frame=20684 fps=328 q=-0.0 size=N/A time=00:14:22.69 bitrate=N/A speed=13.7x    frame=20802 fps=328 q=-0.0 size=N/A time=00:14:27.61 bitrate=N/A speed=13.7x    frame=20905 fps=327 q=-0.0 size=N/A time=00:14:31.91 bitrate=N/A speed=13.6x    frame=21052 fps=326 q=-0.0 size=N/A time=00:14:38.04 bitrate=N/A speed=13.6x    frame=21147 fps=325 q=-0.0 size=N/A time=00:14:42.00 bitrate=N/A speed=13.6x    frame=21232 fps=324 q=-0.0 size=N/A time=00:14:45.55 bitrate=N/A speed=13.5x    frame=21342 fps=323 q=-0.0 size=N/A time=00:14:50.13 bitrate=N/A speed=13.5x    frame=21467 fps=322 q=-0.0 size=N/A time=00:14:55.35 bitrate=N/A speed=13.4x    frame=21591 fps=322 q=-0.0 size=N/A time=00:15:00.52 bitrate=N/A speed=13.4x    frame=21731 fps=321 q=-0.0 size=N/A time=00:15:06.36 bitrate=N/A speed=13.4x    frame=21874 fps=321 q=-0.0 size=N/A time=00:15:12.32 bitrate=N/A speed=13.4x    frame=22007 fps=320 q=-0.0 size=N/A time=00:15:17.87 bitrate=N/A speed=13.4x    frame=22091 fps=319 q=-0.0 size=N/A time=00:15:21.37 bitrate=N/A speed=13.3x    frame=22183 fps=318 q=-0.0 size=N/A time=00:15:25.21 bitrate=N/A speed=13.3x    frame=22294 fps=317 q=-0.0 size=N/A time=00:15:29.84 bitrate=N/A speed=13.2x    frame=22427 fps=317 q=-0.0 size=N/A time=00:15:35.39 bitrate=N/A speed=13.2x    frame=22531 fps=316 q=-0.0 size=N/A time=00:15:39.73 bitrate=N/A speed=13.2x    frame=22679 fps=316 q=-0.0 size=N/A time=00:15:45.90 bitrate=N/A speed=13.2x    frame=22813 fps=316 q=-0.0 size=N/A time=00:15:51.49 bitrate=N/A speed=13.2x    frame=22929 fps=315 q=-0.0 size=N/A time=00:15:56.33 bitrate=N/A speed=13.1x    frame=23082 fps=315 q=-0.0 size=N/A time=00:16:02.71 bitrate=N/A speed=13.1x    frame=23220 fps=315 q=-0.0 size=N/A time=00:16:08.46 bitrate=N/A speed=13.1x    frame=23337 fps=314 q=-0.0 size=N/A time=00:16:13.34 bitrate=N/A speed=13.1x    frame=23461 fps=313 q=-0.0 size=N/A time=00:16:18.51 bitrate=N/A speed=13.1x    frame=23570 fps=313 q=-0.0 size=N/A time=00:16:23.06 bitrate=N/A speed=  13x    frame=23640 fps=311 q=-0.0 size=N/A time=00:16:25.98 bitrate=N/A speed=  13x    frame=23784 fps=311 q=-0.0 size=N/A time=00:16:31.99 bitrate=N/A speed=  13x    frame=23922 fps=311 q=-0.0 size=N/A time=00:16:37.74 bitrate=N/A speed=  13x    frame=24050 fps=311 q=-0.0 size=N/A time=00:16:43.08 bitrate=N/A speed=  13x    frame=24146 fps=310 q=-0.0 size=N/A time=00:16:47.08 bitrate=N/A speed=12.9x    frame=24309 fps=310 q=-0.0 size=N/A time=00:16:53.88 bitrate=N/A speed=12.9x    frame=24440 fps=309 q=-0.0 size=N/A time=00:16:59.35 bitrate=N/A speed=12.9x    frame=24604 fps=309 q=-0.0 size=N/A time=00:17:06.19 bitrate=N/A speed=12.9x    frame=24725 fps=309 q=-0.0 size=N/A time=00:17:11.23 bitrate=N/A speed=12.9x    frame=24883 fps=309 q=-0.0 size=N/A time=00:17:17.82 bitrate=N/A speed=12.9x    frame=25003 fps=309 q=-0.0 size=N/A time=00:17:22.83 bitrate=N/A speed=12.9x    frame=25150 fps=308 q=-0.0 size=N/A time=00:17:28.96 bitrate=N/A speed=12.9x    frame=25269 fps=308 q=-0.0 size=N/A time=00:17:33.92 bitrate=N/A speed=12.8x    frame=25410 fps=308 q=-0.0 size=N/A time=00:17:39.80 bitrate=N/A speed=12.8x    frame=25585 fps=308 q=-0.0 size=N/A time=00:17:47.10 bitrate=N/A speed=12.8x    frame=25745 fps=308 q=-0.0 size=N/A time=00:17:53.78 bitrate=N/A speed=12.8x    frame=25913 fps=308 q=-0.0 size=N/A time=00:18:00.78 bitrate=N/A speed=12.8x    frame=26089 fps=308 q=-0.0 size=N/A time=00:18:08.12 bitrate=N/A speed=12.9x    frame=26260 fps=308 q=-0.0 size=N/A time=00:18:15.26 bitrate=N/A speed=12.9x    frame=26435 fps=308 q=-0.0 size=N/A time=00:18:22.55 bitrate=N/A speed=12.9x    frame=26599 fps=309 q=-0.0 size=N/A time=00:18:29.39 bitrate=N/A speed=12.9x    frame=26759 fps=309 q=-0.0 size=N/A time=00:18:36.07 bitrate=N/A speed=12.9x    frame=26911 fps=308 q=-0.0 size=N/A time=00:18:42.41 bitrate=N/A speed=12.9x    frame=27076 fps=309 q=-0.0 size=N/A time=00:18:49.29 bitrate=N/A speed=12.9x    frame=27234 fps=309 q=-0.0 size=N/A time=00:18:55.88 bitrate=N/A speed=12.9x    frame=27402 fps=309 q=-0.0 size=N/A time=00:19:02.89 bitrate=N/A speed=12.9x    frame=27575 fps=309 q=-0.0 size=N/A time=00:19:10.10 bitrate=N/A speed=12.9x    frame=27748 fps=309 q=-0.0 size=N/A time=00:19:17.32 bitrate=N/A speed=12.9x    frame=27896 fps=309 q=-0.0 size=N/A time=00:19:23.49 bitrate=N/A speed=12.9x    frame=28056 fps=309 q=-0.0 size=N/A time=00:19:30.16 bitrate=N/A speed=12.9x    frame=28210 fps=309 q=-0.0 size=N/A time=00:19:36.59 bitrate=N/A speed=12.9x    frame=28385 fps=309 q=-0.0 size=N/A time=00:19:43.89 bitrate=N/A speed=12.9x    frame=28544 fps=309 q=-0.0 size=N/A time=00:19:50.52 bitrate=N/A speed=12.9x    frame=28703 fps=309 q=-0.0 size=N/A time=00:19:57.15 bitrate=N/A speed=12.9x    frame=28845 fps=309 q=-0.0 size=N/A time=00:20:03.07 bitrate=N/A speed=12.9x    frame=29008 fps=309 q=-0.0 size=N/A time=00:20:09.87 bitrate=N/A speed=12.9x    frame=29156 fps=309 q=-0.0 size=N/A time=00:20:16.04 bitrate=N/A speed=12.9x    frame=29317 fps=309 q=-0.0 size=N/A time=00:20:22.76 bitrate=N/A speed=12.9x    frame=29479 fps=309 q=-0.0 size=N/A time=00:20:29.51 bitrate=N/A speed=12.9x    frame=29642 fps=309 q=-0.0 size=N/A time=00:20:36.31 bitrate=N/A speed=12.9x    frame=29807 fps=309 q=-0.0 size=N/A time=00:20:43.20 bitrate=N/A speed=12.9x    frame=29964 fps=309 q=-0.0 size=N/A time=00:20:49.74 bitrate=N/A speed=12.9x    frame=30116 fps=309 q=-0.0 size=N/A time=00:20:56.08 bitrate=N/A speed=12.9x    frame=30290 fps=309 q=-0.0 size=N/A time=00:21:03.34 bitrate=N/A speed=12.9x    frame=30472 fps=309 q=-0.0 size=N/A time=00:21:10.93 bitrate=N/A speed=12.9x    frame=30648 fps=309 q=-0.0 size=N/A time=00:21:18.27 bitrate=N/A speed=12.9x    frame=30838 fps=310 q=-0.0 size=N/A time=00:21:26.20 bitrate=N/A speed=12.9x    frame=31008 fps=310 q=-0.0 size=N/A time=00:21:33.29 bitrate=N/A speed=12.9x    frame=31182 fps=310 q=-0.0 size=N/A time=00:21:40.54 bitrate=N/A speed=12.9x    frame=31351 fps=310 q=-0.0 size=N/A time=00:21:47.59 bitrate=N/A speed=12.9x    frame=31519 fps=310 q=-0.0 size=N/A time=00:21:54.60 bitrate=N/A speed=12.9x    frame=31682 fps=310 q=-0.0 size=N/A time=00:22:01.40 bitrate=N/A speed=12.9x    frame=31815 fps=310 q=-0.0 size=N/A time=00:22:06.95 bitrate=N/A speed=12.9x    frame=31954 fps=310 q=-0.0 size=N/A time=00:22:12.74 bitrate=N/A speed=12.9x    frame=32107 fps=310 q=-0.0 size=N/A time=00:22:19.12 bitrate=N/A speed=12.9x    frame=32282 fps=310 q=-0.0 size=N/A time=00:22:26.42 bitrate=N/A speed=12.9x    frame=32451 fps=310 q=-0.0 size=N/A time=00:22:33.47 bitrate=N/A speed=12.9x    frame=32614 fps=310 q=-0.0 size=N/A time=00:22:40.27 bitrate=N/A speed=12.9x    frame=32704 fps=309 q=-0.0 size=N/A time=00:22:44.02 bitrate=N/A speed=12.9x    frame=32826 fps=309 q=-0.0 size=N/A time=00:22:49.11 bitrate=N/A speed=12.9x    frame=32991 fps=309 q=-0.0 size=N/A time=00:22:55.99 bitrate=N/A speed=12.9x    frame=33159 fps=309 q=-0.0 size=N/A time=00:23:03.00 bitrate=N/A speed=12.9x    frame=33328 fps=309 q=-0.0 size=N/A time=00:23:10.05 bitrate=N/A speed=12.9x    frame=33486 fps=309 q=-0.0 size=N/A time=00:23:16.64 bitrate=N/A speed=12.9x    frame=33642 fps=309 q=-0.0 size=N/A time=00:23:23.15 bitrate=N/A speed=12.9x    frame=33772 fps=309 q=-0.0 size=N/A time=00:23:28.57 bitrate=N/A speed=12.9x    frame=33895 fps=308 q=-0.0 size=N/A time=00:23:33.70 bitrate=N/A speed=12.9x    frame=34054 fps=308 q=-0.0 size=N/A time=00:23:40.33 bitrate=N/A speed=12.9x    frame=34211 fps=308 q=-0.0 size=N/A time=00:23:46.88 bitrate=N/A speed=12.9x    frame=34346 fps=308 q=-0.0 size=N/A time=00:23:52.51 bitrate=N/A speed=12.8x    frame=34476 fps=308 q=-0.0 size=N/A time=00:23:57.93 bitrate=N/A speed=12.8x    frame=34653 fps=308 q=-0.0 size=N/A time=00:24:05.31 bitrate=N/A speed=12.8x    [Parsed_ssim_16 @ 00000225b6924440] SSIM Y:0.994192 (22.359864) U:0.994006 (22.223100) V:0.993610 (21.944910) All:0.994064 (22.265176)
[out#0/null @ 00000225a985fe80] video:14903KiB audio:271276KiB subtitle:0KiB other streams:0KiB global headers:0KiB muxing overhead: unknown
frame=34683 fps=308 q=-0.0 Lsize=N/A time=00:24:06.57 bitrate=N/A speed=12.8x    
